HIERARCHY
ROOT joint_Root
{
	OFFSET 0.0 0.0 0.0
	CHANNELS 6 Xposition Yposition Zposition Zrotation Xrotation Yrotation 
	JOINT Hips
	{
		OFFSET -17.1583 93.1646 452.98
		CHANNELS 6 Xposition Yposition Zposition Zrotation Xrotation Yrotation 
		JOINT Spine
		{
			OFFSET 15.7357 0.0 0.0
			CHANNELS 6 Xposition Yposition Zposition Zrotation Xrotation Yrotation 
			JOINT Chest
			{
				OFFSET 8.98455 -0.406207 0.0
				CHANNELS 6 Xposition Yposition Zposition Zrotation Xrotation Yrotation 
				JOINT Neck
				{
					OFFSET 16.3773 0.0 0.0
					CHANNELS 6 Xposition Yposition Zposition Zrotation Xrotation Yrotation 
					JOINT Head
					{
						OFFSET 6.45672 0.0 0.0
						CHANNELS 6 Xposition Yposition Zposition Zrotation Xrotation Yrotation 
						End Site
						{
							OFFSET 0.0 0.0 0.0
						}
					}
				}
				JOINT Shoulder_L
				{
					OFFSET 12.9942 -0.242716 4.98039
					CHANNELS 6 Xposition Yposition Zposition Zrotation Xrotation Yrotation 
					JOINT UpperArm_L
					{
						OFFSET 5.34809 0.0 0.0
						CHANNELS 6 Xposition Yposition Zposition Zrotation Xrotation Yrotation 
						JOINT LowerArm_L
						{
							OFFSET 24.3286 1.87007e-05 0.0
							CHANNELS 6 Xposition Yposition Zposition Zrotation Xrotation Yrotation 
							JOINT Hand_L
							{
								OFFSET 22.2916 0.0 0.0
								CHANNELS 6 Xposition Yposition Zposition Zrotation Xrotation Yrotation 
								End Site
								{
									OFFSET 0.0 0.0 0.0
								}
							}
						}
					}
				}
				JOINT Shoulder_R
				{
					OFFSET 12.9945 -0.242716 -4.98039
					CHANNELS 6 Xposition Yposition Zposition Zrotation Xrotation Yrotation 
					JOINT UpperArm_R
					{
						OFFSET -5.34813 0.0 0.0
						CHANNELS 6 Xposition Yposition Zposition Zrotation Xrotation Yrotation 
						JOINT LowerArm_R
						{
							OFFSET -24.3289 0.000322201 0.0
							CHANNELS 6 Xposition Yposition Zposition Zrotation Xrotation Yrotation 
							JOINT Hand_R
							{
								OFFSET -22.2915 -0.000108084 0.0
								CHANNELS 6 Xposition Yposition Zposition Zrotation Xrotation Yrotation 
								End Site
								{
									OFFSET 0.0 0.0 0.0
								}
							}
						}
					}
				}
			}
		}
		JOINT UpperLeg_L
		{
			OFFSET -2.19248 -6.46944 0.0
			CHANNELS 6 Xposition Yposition Zposition Zrotation Xrotation Yrotation 
			JOINT LowerLeg_L
			{
				OFFSET 39.0811 0.0 -1.23785e-05
				CHANNELS 6 Xposition Yposition Zposition Zrotation Xrotation Yrotation 
				JOINT Foot_L
				{
					OFFSET 40.9854 0.0 -1.26872e-05
					CHANNELS 6 Xposition Yposition Zposition Zrotation Xrotation Yrotation 
					JOINT Toes_L
					{
						OFFSET 11.7543 0.0 0.0
						CHANNELS 6 Xposition Yposition Zposition Zrotation Xrotation Yrotation 
						End Site
						{
							OFFSET 0.0 0.0 0.0
						}
					}
				}
			}
		}
		JOINT UpperLeg_R
		{
			OFFSET -2.19251 6.46944 0.0
			CHANNELS 6 Xposition Yposition Zposition Zrotation Xrotation Yrotation 
			JOINT LowerLeg_R
			{
				OFFSET -39.0811 -0.00228153 -0.0401928
				CHANNELS 6 Xposition Yposition Zposition Zrotation Xrotation Yrotation 
				JOINT Foot_R
				{
					OFFSET -40.9854 0.0 0.0
					CHANNELS 6 Xposition Yposition Zposition Zrotation Xrotation Yrotation 
					JOINT Toes_R
					{
						OFFSET -11.7543 0.0 0.0
						CHANNELS 6 Xposition Yposition Zposition Zrotation Xrotation Yrotation 
						End Site
						{
							OFFSET 0.0 0.0 0.0
						}
					}
				}
			}
		}
	}
}
MOTION
Frames:	4
Frame Time:	0.0333333
0.000000 0.000000 0.000000 0.000000 0.000000 -0.000000 160.658000 87.940500 201.536000 92.717000 -40.645600 5.958840 15.735700 0.000005 -0.000001 61.830000 85.208400 -60.320900 8.984550 -0.406207 -0.000000 0.748315 -4.614940 3.047300 16.377300 -0.000001 -0.000001 4.910540 -7.886700 -3.200450 6.456720 -0.000001 -0.000000 -8.379430 -11.051700 -8.147930 12.994200 -0.242716 4.980390 -93.995500 12.512700 -72.131000 5.348090 -0.000007 -0.000001 -54.937600 12.033500 -23.464900 24.328600 0.000019 0.000005 18.310900 32.613100 -31.556200 22.291600 -0.000001 0.000005 -7.161620 5.251340 1.343810 12.994500 -0.242716 -4.980390 87.899300 4.748070 -66.100100 -5.348130 -0.000001 -0.000004 -63.345500 -2.842680 0.322127 -24.328900 0.000322 -0.000009 1.600080 6.828470 -13.227600 -22.291500 -0.000108 -0.000004 -8.721390 5.264080 1.023500 -2.192480 -6.469440 -0.000000 -167.761000 -2.948250 -8.673430 39.081100 -0.000007 -0.000012 0.080668 -0.033078 67.700200 40.985400 -0.000006 -0.000013 -11.126500 12.133200 -34.489400 11.754300 -0.000000 0.000003 0.001952 0.044903 -14.755300 -2.192510 6.469440 -0.000001 -165.984000 21.451900 168.073000 -39.081100 -0.002282 -0.040193 0.099663 -0.154137 32.013200 -40.985400 0.000008 0.000006 9.725420 -5.858780 -77.181400 -11.754300 -0.000006 -0.000006 -0.001045 0.183715 -9.120870
0.000000 0.000000 0.000000 0.000000 0.000000 -0.000000 158.302000 88.844100 203.831000 95.570600 -47.089300 7.438880 15.735700 0.000005 -0.000001 71.929400 85.982500 -71.045900 8.984550 -0.406207 -0.000000 -0.106581 -2.552420 1.763630 16.377300 -0.000001 -0.000001 5.487970 -6.713600 -2.312480 6.456720 -0.000001 -0.000000 -7.474890 -10.048800 -7.798440 12.994200 -0.242716 4.980390 -94.115900 12.325900 -71.371200 5.348090 -0.000007 -0.000001 -57.636400 13.112500 -17.943100 24.328600 0.000019 0.000005 13.073800 38.104600 -20.629400 22.291600 -0.000001 0.000005 -13.041100 5.292230 0.292378 12.994500 -0.242716 -4.980390 87.965900 4.778770 -66.910700 -5.348130 -0.000001 -0.000004 -66.150500 3.220980 -3.367490 -24.328900 0.000322 -0.000009 2.153260 5.885920 -20.161700 -22.291500 -0.000108 -0.000004 -8.487630 5.356880 -1.572610 -2.192480 -6.469440 -0.000000 -169.869000 -4.052950 -12.560200 39.081100 -0.000007 -0.000012 0.099377 -0.039796 68.173100 40.985400 -0.000006 -0.000013 -11.377400 9.853710 -38.258700 11.754300 -0.000000 0.000003 0.002179 0.054296 -14.374400 -2.192510 6.469440 -0.000001 -168.894000 17.154600 172.704000 -39.081100 -0.002282 -0.040193 0.030625 -0.049445 28.922700 -40.985400 0.000008 0.000006 8.041690 -2.723130 -76.846100 -11.754300 -0.000006 -0.000006 -0.001234 0.186342 -9.014110
0.000000 0.000000 0.000000 0.000000 0.000000 -0.000000 156.030000 89.838400 206.047000 99.559200 -53.681900 9.524790 15.735700 0.000005 -0.000001 82.796600 86.650000 -82.618400 8.984550 -0.406207 -0.000000 -1.117490 -0.853766 0.347784 16.377300 -0.000001 -0.000001 5.474740 -5.452140 -1.804700 6.456720 -0.000001 -0.000000 -6.777610 -8.918410 -7.331240 12.994200 -0.242716 4.980390 -94.259800 11.963200 -70.234400 5.348090 -0.000007 -0.000001 -61.621000 8.121210 -11.030800 24.328600 0.000019 0.000005 7.317460 42.502100 -10.765400 22.291600 -0.000001 0.000005 -13.897200 5.219890 2.192440 12.994500 -0.242716 -4.980390 88.127400 4.611940 -67.872800 -5.348130 -0.000001 -0.000004 -68.293700 8.052070 -7.429020 -24.328900 0.000322 -0.000009 2.234570 4.578600 -26.067000 -22.291500 -0.000108 -0.000004 -6.238960 5.363000 -1.770850 -2.192480 -6.469440 -0.000000 -172.178000 -4.769930 -16.378200 39.081100 -0.000007 -0.000012 0.109142 -0.048148 66.193100 40.985400 -0.000006 -0.000013 -10.646100 5.106110 -43.289400 11.754300 -0.000000 0.000003 0.002218 0.056222 -14.296300 -2.192510 6.469440 -0.000001 -171.784000 12.385900 176.586000 -39.081100 -0.002282 -0.040193 0.018704 -0.032884 25.083200 -40.985400 0.000008 0.000006 7.461810 0.266599 -75.601000 -11.754300 -0.000006 -0.000006 -0.001273 0.186880 -8.992260
0.000000 0.000000 0.000000 0.000000 0.000000 -0.000000 153.882000 90.858400 208.182000 104.741000 -60.621900 12.697800 15.735700 0.000005 -0.000001 98.827000 87.082600 -99.291400 8.984550 -0.406207 -0.000000 -1.996550 0.934669 -0.912261 16.377300 -0.000001 -0.000001 4.863560 -4.169080 -1.653670 6.456720 -0.000001 -0.000000 -6.667330 -7.835210 -6.769580 12.994200 -0.242716 4.980390 -94.410900 11.625000 -69.052800 5.348090 -0.000007 -0.000001 -64.099700 -0.415281 -3.557120 24.328600 0.000019 0.000005 3.083430 45.012900 -4.356440 22.291600 -0.000001 0.000005 -10.910300 5.086780 5.381790 12.994500 -0.242716 -4.980390 88.234200 4.639850 -69.137300 -5.348130 -0.000001 -0.000004 -69.299600 12.120400 -11.438300 -24.328900 0.000322 -0.000009 2.808330 4.570760 -31.615400 -22.291500 -0.000108 -0.000004 -4.276990 5.370130 -1.987030 -2.192480 -6.469440 -0.000000 -174.274000 -5.331150 -19.748400 39.081100 -0.000007 -0.000012 0.083459 -0.044040 62.177700 40.985400 -0.000006 -0.000013 -7.579900 -1.139100 -49.740900 11.754300 -0.000000 0.000003 0.002256 0.058240 -14.214500 -2.192510 6.469440 -0.000001 -174.401000 6.643520 179.741000 -39.081100 -0.002282 -0.040193 0.008016 -0.012274 20.935600 -40.985400 0.000008 0.000006 6.553120 2.410720 -73.437800 -11.754300 -0.000006 -0.000006 -0.000442 0.174796 -9.483270
